<svg width="16" height="16" viewBox="0 0 16 16" fill="none" xmlns="http://www.w3.org/2000/svg">
<path d="M11.25 3H12.75C13.164 3 13.5 3.336 13.5 3.75V12.25C13.5 12.664 13.164 13 12.75 13H3.25C2.836 13 2.5 12.664 2.5 12.25V3.75C2.5 3.336 2.836 3 3.25 3H4.75" stroke="currentColor" stroke-width="1.5" stroke-linecap="round" stroke-linejoin="round"/>
<path d="M10.5 1.5H5.5C4.948 1.5 4.5 1.948 4.5 2.5V4.5C4.5 5.052 4.948 5.5 5.5 5.5H10.5C11.052 5.5 11.5 5.052 11.5 4.5V2.5C11.5 1.948 11.052 1.5 10.5 1.5Z" stroke="currentColor" stroke-width="1.5" stroke-linecap="round" stroke-linejoin="round"/>
<path d="M6 8.5H10" stroke="currentColor" stroke-width="1.5" stroke-linecap="round"/>
<path d="M6 10.5H8" stroke="currentColor" stroke-width="1.5" stroke-linecap="round"/>
</svg>